<?xml version="1.0" encoding="utf-8"?>
<!-- Generator: Adobe Illustrator 16.0.0, SVG Export Plug-In . SVG Version: 6.00 Build 0)  -->
<!DOCTYPE svg PUBLIC "-//W3C//DTD SVG 1.1//EN" "http://www.w3.org/Graphics/SVG/1.1/DTD/svg11.dtd">
<svg version="1.1" id="Layer_1" xmlns="http://www.w3.org/2000/svg" xmlns:xlink="http://www.w3.org/1999/xlink" x="0px" y="0px"
	 width="50px" height="50px" viewBox="0 0 50 50" enable-background="new 0 0 50 50" xml:space="preserve">
<g>
	<path fill="#B4A9D8" d="M47.68,38.002c0,1.338-1.084,2.42-2.42,2.42H4.741c-1.336,0-2.42-1.082-2.42-2.42V11.996
		c0-1.335,1.084-2.418,2.42-2.418H45.26c1.336,0,2.42,1.083,2.42,2.418V38.002z"/>
	<g>
		<defs>
			<path id="SVGID_1_" d="M47.68,38.002c0,1.338-1.084,2.42-2.42,2.42H4.741c-1.336,0-2.42-1.082-2.42-2.42V11.996
				c0-1.335,1.084-2.418,2.42-2.418H45.26c1.336,0,2.42,1.083,2.42,2.418V38.002z"/>
		</defs>
		<clipPath id="SVGID_2_">
			<use xlink:href="#SVGID_1_"  overflow="visible"/>
		</clipPath>
		<polygon clip-path="url(#SVGID_2_)" fill="#B4A9D8" stroke="#FFFFF4" stroke-width="2" stroke-miterlimit="10" points="25,23.445 
			10.743,34.785 -3.515,46.123 25,46.123 53.516,46.123 39.258,34.785 		"/>
	</g>
	<g>
		<defs>
			<path id="SVGID_3_" d="M47.68,38.002c0,1.338-1.084,2.42-2.42,2.42H4.741c-1.336,0-2.42-1.082-2.42-2.42V11.996
				c0-1.335,1.084-2.418,2.42-2.418H45.26c1.336,0,2.42,1.083,2.42,2.418V38.002z"/>
		</defs>
		<clipPath id="SVGID_4_">
			<use xlink:href="#SVGID_3_"  overflow="visible"/>
		</clipPath>
		<polygon clip-path="url(#SVGID_4_)" fill="#B4A9D8" stroke="#FFFFF4" stroke-width="2" stroke-miterlimit="10" points="25,28.273 
			10.743,18.126 -3.515,7.98 25,7.98 53.516,7.98 39.258,18.126 		"/>
	</g>
</g>
<ellipse fill="#B4A9D8" cx="25" cy="-23.542" rx="23.182" ry="16.861"/>
<g>
	<text transform="matrix(0.9998 0 0 1 7.3745 -18.1797)" fill="#FFFFF4" font-family="'Cafe24Ssurround'" font-size="14.6322">TA</text>
	<text transform="matrix(0.9998 0 0 1 24.1494 -18.1797)" fill="#FFFFF4" font-family="'Cafe24Ssurround'" font-size="14.6322">L</text>
	<text transform="matrix(0.9998 0 0 1 32.4619 -18.1797)" fill="#FFFFF4" font-family="'Cafe24Ssurround'" font-size="14.6322">K</text>
</g>
<polygon fill="#B4A9D8" points="11.753,-13.245 16.717,-12.153 21.683,-11.063 15.628,-7.191 9.574,-3.318 10.663,-8.28 "/>
<path fill="#B4A9D8" d="M31.483,86.699l-4.555,3.266c-0.184,0.093-0.359,0.2-0.525,0.312c-2.302-2.523-3.913-5.716-5.217-7.937
	c-1.573-3.448-2.767-6.884-3.142-8.959c0.19-0.065,0.381-0.141,0.568-0.229l5.357-1.64c3.443-1.285,3.672-4.428,2.783-6.102
	l-2.787-5.802c-1.154-2.401-4.037-3.413-6.441-2.263l-5.134,2.467c-1.62,0.775-2.547,2.541-3.081,4.016
	c-0.529,1.711-1.377,6.648-0.134,12.99c0.548,2.806,1.659,6.141,3.517,9.726c1.915,3.813,3.697,6.557,5.595,8.695
	c4.288,4.836,8.726,7.159,10.409,7.778c1.494,0.47,3.461,0.804,5.059-0.015l5.078-2.584c2.375-1.211,3.318-4.117,2.109-6.491
	l-2.922-5.736C37.229,86.469,34.595,84.741,31.483,86.699z"/>
</svg>
