<?xml version="1.0" encoding="utf-8"?>
<!-- Generator: Adobe Illustrator 16.0.0, SVG Export Plug-In . SVG Version: 6.00 Build 0)  -->
<!DOCTYPE svg PUBLIC "-//W3C//DTD SVG 1.1//EN" "http://www.w3.org/Graphics/SVG/1.1/DTD/svg11.dtd">
<svg version="1.1" id="Layer_1" xmlns="http://www.w3.org/2000/svg" xmlns:xlink="http://www.w3.org/1999/xlink" x="0px" y="0px"
	 width="43.333px" height="45.5px" viewBox="0 0 43.333 45.5" enable-background="new 0 0 43.333 45.5" xml:space="preserve">
<g>
	<path fill="#3B2517" d="M107.656,23.906c-0.789-3.403-0.424-7.282-1.065-10.598c-0.179-0.924-0.279-1.804-0.341-2.663
		c-0.424-1.351-0.771-2.717-0.98-4.118c-0.449-0.921-0.828-1.865-1.018-2.868c-0.184-0.972-0.152-1.904,0.06-2.754
		c-0.14-1.358,0.215-2.85,0.137-4.19c-0.192-3.205-2.371-5.245-4.229-7.563c-1.999-2.489-1.906-6.014-4.193-8.326
		c-0.471-0.478-1.045-0.551-1.535-0.383c-3.539-0.238-6.305-3.512-9.971-3.237c-2.797,0.207-6.541,1.128-8.564,3.142
		c-4.645,4.615-3.6,10.757-4.872,17.434c-1.413,7.412-0.048,15.005,5.063,20.398c2.348,2.479,1.816,4.502,4.904,5.914
		c3.362,1.541,6.924,2.547,9.877,4.902c0.381,0.303,0.768,0.373,1.109,0.289c2.074,1.533,3.663,2.977,6.503,3.369
		c2.269,0.316,5.141,0.518,7.103-0.961C108.515,29.531,106.25,26.23,107.656,23.906z"/>
</g>
<g>
	<path fill="#3B2416" d="M71.764-52.883c0,0,3.152-3.124,5.746,2.033c3.322,6.611,6.255,6.846,6.65,7.345
		c0.396,0.499,2.247,3.522,0.305,7.086c-1.743,3.206,2.531,5.98,2.531,5.98s4.393-0.241,4.776-2.132
		c0.388-1.891,2.767-24.643-11.577-27.545C65.854-63.016,71.764-52.883,71.764-52.883z"/>
</g>
<g>
	<path fill="#3B2416" d="M27.917-46.952c0,0-3.52-1.679-4.872,4.154c-1.556,6.716-4.544,8.576-4.751,9.205
		c-0.209,0.627,0.69,6.583,3.857,9.243c2.848,2.392-1.045,4.714-1.045,4.714s-1.364,1.878-2.416,0.219
		c-1.053-1.658-1.185-25.3,0.277-27.467C27.567-59.622,27.917-46.952,27.917-46.952z"/>
</g>
<g>
	<path fill="#BEBCBC" d="M-35.308,37.749c-0.064,0.209-0.314,0.239,0.045,0.349l14.081,10.343c0.393-0.083,0.369-0.083,0.765-0.183
		c0,0,12.008-2.7,12.05-2.82c0.185-0.513,0.046-0.493-0.159-0.585l-21.439-11.405c-0.359-0.11-0.704-0.031-0.769,0.183
		L-35.308,37.749z"/>
	<path fill="#E6E5E5" d="M-35.332,37.202c0.225-0.744-0.235,0.474-0.156,0.499l14.247,10.252c0.4-0.079,0.381-0.073,0.768-0.182
		l12.069-2.614c0.406-0.152-0.221-0.379-0.54-0.579l-21.031-11.649c-0.359-0.11-0.704-0.03-0.767,0.183L-35.332,37.202z"/>
	<path fill="#B7B7B8" d="M-23.605,39.561c-0.019,0.048,0.037,0.122,0.127,0.152c0,0,4.63,2.639,4.804,2.67c0,0,0.053,0.03,0.21,0
		l3.129-0.513c0.106-0.03-0.051-0.097-0.131-0.153l-5.309-3.033c-0.28-0.184-0.323-0.141-0.534-0.02L-23.605,39.561z"/>
	<path fill="#909191" d="M-19.219,46.196c-0.146,0.039-0.11,0.052-0.034,0.094l0.704,0.384c0.146,0.086,0.144,0.103,0.329,0.049
		l0.768-0.194c0.212-0.061,0.226-0.052,0.052-0.141l-0.685-0.358c-0.159-0.08-0.146-0.08-0.299-0.039L-19.219,46.196z"/>
	<path fill="#909191" d="M-17.789,45.863l0.867-0.226c0.046-0.014,0.077-0.02,0.104-0.025l0.213-0.055
		c0.058-0.02,0.092-0.025,0.123-0.028c0.014-0.007,0.036-0.007,0.063-0.02l0.872-0.219c0.158-0.045,0.146-0.045,0.31,0.034
		l0.712,0.379c0.182,0.098,0.163,0.086-0.054,0.147l-0.799,0.206c-0.072,0.019-0.117,0.032-0.154,0.032
		c-0.028,0.006-0.061,0.018-0.104,0.028l-0.802,0.209c-0.048,0.01-0.085,0.022-0.116,0.022l-0.198,0.055
		c-0.196,0.058-0.188,0.038-0.341-0.048l-0.731-0.407C-17.903,45.904-17.938,45.896-17.789,45.863z"/>
	<path fill="#909191" d="M-20.295,45.538c-0.145,0.033-0.109,0.045-0.034,0.086l0.704,0.392c0.147,0.08,0.141,0.097,0.329,0.048
		l0.77-0.2c0.209-0.054,0.225-0.048,0.05-0.14l-0.687-0.36c-0.157-0.078-0.145-0.078-0.296-0.038L-20.295,45.538z"/>
	<path fill="#909191" d="M-21.456,44.899c-0.144,0.039-0.107,0.048-0.031,0.092l0.704,0.386c0.146,0.083,0.139,0.101,0.326,0.047
		l0.771-0.193c0.208-0.064,0.227-0.051,0.049-0.14l-0.683-0.36c-0.157-0.08-0.146-0.08-0.302-0.038L-21.456,44.899z"/>
	<path fill="#909191" d="M-18.85,45.211c-0.144,0.028-0.11,0.041-0.034,0.086l0.704,0.389c0.145,0.08,0.142,0.098,0.329,0.05
		l0.768-0.203c0.21-0.061,0.225-0.047,0.052-0.141l-0.685-0.358c-0.159-0.08-0.147-0.08-0.299-0.036L-18.85,45.211z"/>
	<path fill="#909191" d="M-20.061,44.564c-0.142,0.03-0.107,0.042-0.03,0.086l0.704,0.383c0.147,0.086,0.141,0.105,0.326,0.05
		l0.766-0.196c0.212-0.062,0.23-0.048,0.053-0.14l-0.683-0.36c-0.159-0.078-0.145-0.078-0.301-0.034L-20.061,44.564z"/>
	<path fill="#909191" d="M-18.708,44.234c-0.142,0.032-0.109,0.044-0.029,0.086l0.702,0.385c0.147,0.086,0.141,0.103,0.326,0.048
		l0.77-0.194c0.208-0.061,0.228-0.047,0.052-0.14l-0.685-0.359c-0.16-0.079-0.144-0.079-0.299-0.039L-18.708,44.234z"/>
	<path fill="#909191" d="M-21.244,43.906c-0.143,0.03-0.107,0.042-0.03,0.086l0.704,0.383c0.146,0.086,0.139,0.105,0.326,0.051
		l0.768-0.197c0.21-0.062,0.229-0.048,0.052-0.14l-0.683-0.36c-0.157-0.08-0.147-0.08-0.298-0.035L-21.244,43.906z"/>
	<path fill="#909191" d="M-19.808,43.576c-0.144,0.031-0.11,0.051-0.031,0.092l0.706,0.386c0.147,0.086,0.139,0.102,0.326,0.047
		l0.768-0.2c0.21-0.055,0.229-0.047,0.05-0.141l-0.685-0.358c-0.156-0.073-0.144-0.073-0.296-0.039L-19.808,43.576z"/>
	<path fill="#909191" d="M-20.959,42.957c-0.147,0.027-0.11,0.039-0.034,0.084l0.704,0.383c0.145,0.086,0.139,0.104,0.326,0.05
		l0.771-0.197c0.21-0.061,0.225-0.047,0.053-0.139l-0.686-0.359c-0.159-0.08-0.147-0.08-0.3-0.037L-20.959,42.957z"/>
	<path fill="#909191" d="M-22.041,42.328c-0.144,0.031-0.11,0.048-0.031,0.091l0.704,0.384c0.146,0.086,0.141,0.104,0.326,0.049
		l0.768-0.2c0.21-0.057,0.229-0.049,0.053-0.14l-0.688-0.361c-0.159-0.072-0.143-0.072-0.298-0.037L-22.041,42.328z"/>
	<path fill="#909191" d="M-17.503,44.864c-0.144,0.029-0.106,0.041-0.031,0.083l0.704,0.391c0.145,0.086,0.139,0.1,0.326,0.048
		l0.769-0.2c0.21-0.054,0.228-0.047,0.052-0.14l-0.685-0.359c-0.156-0.08-0.145-0.08-0.3-0.036L-17.503,44.864z"/>
	<line fill="#909191" x1="-12.88" y1="46.09" x2="-20.743" y2="41.699"/>
	<g>
		<path fill="#545554" d="M-35.991,37.116c-0.045,0.384,0.208,0.738,0.561,0.78l13.891,10.575c0.115,0.219,0.822-0.181,0.895-0.792
			l1.454-12.337c0.046-0.39-0.229-0.627-0.557-0.78l-14.378-8.308c-0.436-0.183-0.567,0.268-0.878,0.743L-35.991,37.116z"/>
		<path fill="#727273" d="M-36.115,37.402c-0.046,0.39,0.146,0.549,0.551,0.781l13.843,10.394c0.35,0.041,0.673-0.245,0.719-0.63
			l1.454-12.343c0.046-0.391-0.274-0.61-0.553-0.774l-14.198-8.308c-0.466-0.182-0.671,0.238-0.716,0.628L-36.115,37.402z"/>
	</g>
</g>
<g>
	<g>
		<g>
			<path fill="#8BC277" d="M-65.018,19.773l-4.019,4.567l1.866-5.836l0.84-2.607c-5.761-4.174-12.232-7.418-17.277-7.281
				c-1.621,5.291-0.095,13.351,2.492,20.645l0.563-0.021l5.943-0.158l-5.399,2.654l-0.148,0.072
				c1.759,4.432,3.846,8.406,5.732,11.021c5.34,7.428,15.09,8.705,24.637,8.463c2.831-9.237,0.926-16.415-4.335-23.721
				c-2.038-2.835-5.436-6.313-9.388-9.515L-65.018,19.773z"/>
		</g>
		<g>
			<path fill="#FFFFFF" d="M-49.585,51.307c-0.072,0.027-0.16,0.004-0.22-0.041c-21.503-19.293-33.387-40.636-33.504-40.845
				c-0.06-0.113-0.024-0.26,0.089-0.32c0.119-0.065,0.259-0.024,0.32,0.093c0.118,0.211,11.962,21.484,33.405,40.718
				c0.096,0.092,0.103,0.24,0.019,0.336C-49.508,51.285-49.543,51.299-49.585,51.307z"/>
		</g>
	</g>
</g>
<g>
	<g>
		<g>
			<path fill="#EED0B8" d="M-162.523-319.941c-1.404,9.826,3.397,13.525,9.847,14.447l0,0c6.446,0.919,12.095-1.289,13.498-11.113
				l7.512-52.632c1.403-9.825-2.685-18.537-9.132-19.459l0,0c-6.447-0.919-12.811,6.299-14.213,16.125L-162.523-319.941z"/>
			<path fill="#EED0B8" d="M-152.187-305.424c8.253,0.996,11.306-3.422,12.009-9.24l0,0c0.705-5.822-1.207-10.838-9.459-11.838
				l-44.838-3.104c-8.253-0.996-14.89,0.672-15.593,6.493l0,0c-0.705,5.819,6.041,9.104,14.296,10.103L-152.187-305.424z"/>
		</g>
		<path fill="#F5F6F6" d="M-159.562-360.008l1.89-13.242c1.561-10.923,9.29-18.857,17.27-17.715
			c7.983,1.138,13.188,10.92,11.628,21.844l-1.889,13.241L-159.562-360.008z"/>
	</g>
	<path fill="#EED0B8" d="M-211.519-324.615c-0.863,6.041,3.338,11.639,9.381,12.5c6.041,0.864,11.639-3.336,12.502-9.377
		c0.861-6.043-3.337-11.643-9.377-12.506C-205.057-334.859-210.658-330.658-211.519-324.615z"/>
</g>
<path fill="#B5A6C5" d="M-133.582-390.698c2.316-2.343,5.26-3.369,8.396-3.484c1.648-0.422,3.429-0.448,5.198-0.248
	c4.082,0.461,7.27,1.838,10.357,4.048c1.041,0.415,2.351,1.381,4.207,3.225c6.691,6.655,11.072,16.05,15.726,24.459
	c4.803,8.671,9.888,11.207,20.592,9.849c6.006-0.758,10.006-0.164,14.758-4.003c3.691-2.983,4.506-4.633,8.521-7.014
	c0.914-0.858,4.605-2.021,6.771-2.459c1.539-0.31,15.832-2.14,23.844-0.875c4.1,0.642,8.121,2.051,12.234,2.756
	c4.539,0.769,9.072,1.418,13.545,2.666c0.299-0.069,0.623-0.058,0.984,0.048c6.236,1.834,12.678,2.212,18.654,5.147
	c5.496,2.7,5.541,10.388,8.57,15.337c3.355,5.484,7.277,9.736,8.934,16.314c0.887,3.5,0.916,7.186,1.26,10.77
	c0.422,4.275,2.732,8.373,4.184,12.295c0.363,0.973-0.031,2.332-0.834,2.861c-5.924,3.904-13.301,2.57-19.869,1.91
	c-10.502-1.065-21.08-0.325-31.604-0.793c-9.469-0.412-19.77-1.849-29.398-3.224c-7.133-1.019-10.768-3.033-16.674-2.378
	c-5.252,0.582-9.145-0.537-14.383,0.193c-9.886,1.394-20.076,1.863-30.047,2.308c-8.737,0.388-17.263-3.096-25.1-7.329
	c-1.317-0.713-2.576-1.504-3.813-2.33c-0.074-0.01-0.143-0.014-0.22-0.025c-6.29-4.594-39.146-10.798-37.934-33.033l1.417-29.111
	C-153.695-384.097-146.921-390.172-133.582-390.698z"/>
<circle fill="#FFFFFF" cx="10.214" cy="-326.361" r="2.668"/>
<path fill="#FFFFFF" d="M2.365-346.951c-0.207,1.461,0.809,2.813,2.266,3.021c1.461,0.21,2.813-0.806,3.021-2.265
	c0.207-1.459-0.807-2.813-2.268-3.02C3.928-349.424,2.574-348.407,2.365-346.951z"/>
<path fill="#FFFFFF" d="M-20.422-358.057c-0.209,1.459,0.807,2.813,2.266,3.023c1.459,0.207,2.811-0.808,3.02-2.267
	c0.209-1.462-0.807-2.812-2.268-3.021C-18.861-360.53-20.213-359.516-20.422-358.057z"/>
<path fill="#FFFFFF" d="M-11.307-328.552c-0.207,1.456,0.807,2.81,2.268,3.018c1.459,0.208,2.811-0.805,3.021-2.264
	c0.207-1.462-0.807-2.813-2.266-3.022C-9.744-331.027-11.098-330.016-11.307-328.552z"/>
<path fill="#FFFFFF" d="M-29.559-345.061c-0.205,1.459,0.809,2.811,2.266,3.018c1.461,0.21,2.814-0.805,3.021-2.264
	c0.209-1.461-0.805-2.811-2.266-3.02C-27.996-347.535-29.348-346.52-29.559-345.061z"/>
<path fill="#FFFFFF" d="M2.195-307.973c-0.209,1.459,0.807,2.811,2.266,3.021c1.459,0.205,2.811-0.807,3.02-2.268
	c0.207-1.46-0.807-2.812-2.266-3.02C3.756-310.447,2.402-309.433,2.195-307.973z"/>
<path fill="#FFFFFF" d="M-26.57-314.993c-0.207,1.458,0.807,2.812,2.268,3.021c1.459,0.21,2.811-0.805,3.018-2.266
	c0.211-1.46-0.805-2.812-2.266-3.02C-25.01-317.467-26.361-316.452-26.57-314.993z"/>
<path fill="#FFFFFF" d="M-61.954-334.065c-0.207,1.458,0.806,2.812,2.265,3.019c1.458,0.209,2.81-0.806,3.019-2.264
	c0.211-1.461-0.803-2.813-2.262-3.021C-60.394-336.541-61.746-335.524-61.954-334.065z"/>
<path fill="#FFFFFF" d="M-47.836-322.982c-0.207,1.461,0.805,2.813,2.266,3.02s2.813-0.805,3.018-2.266
	c0.211-1.459-0.803-2.811-2.262-3.018S-47.627-324.441-47.836-322.982z"/>
<circle fill="#FFFFFF" cx="-76.774" cy="-341.967" r="2.67"/>
<circle fill="#FFFFFF" cx="25.338" cy="-351.523" r="2.67"/>
<path fill="#FFFFFF" d="M31.883-314.299c-0.207,1.459,0.807,2.813,2.266,3.021c1.458,0.205,2.812-0.807,3.019-2.266
	c0.209-1.461-0.805-2.813-2.264-3.021C33.443-316.772,32.092-315.756,31.883-314.299z"/>
<path fill="#FFFFFF" d="M25.359-332.781c-0.209,1.46,0.807,2.813,2.266,3.021c1.459,0.207,2.813-0.807,3.02-2.266
	c0.209-1.463-0.805-2.812-2.264-3.021C26.92-335.256,25.566-334.239,25.359-332.781z"/>
<circle fill="#FFFFFF" cx="-74.174" cy="-311.75" r="2.669"/>
<path fill="#FFFFFF" d="M-99.224-341.105c-0.207,1.461,0.808,2.814,2.264,3.021c1.462,0.209,2.813-0.809,3.021-2.266
	c0.209-1.459-0.807-2.813-2.264-3.02C-97.662-343.578-99.015-342.563-99.224-341.105z"/>
<circle fill="#FFFFFF" cx="-40.688" cy="-354.164" r="2.669"/>
<circle fill="#FFFFFF" cx="-91.611" cy="-315.968" r="2.669"/>
<circle fill="#FFFFFF" cx="-137.764" cy="-330.649" r="2.67"/>
<path fill="#FFFFFF" d="M-144.177-351.1c-0.21,1.461,0.804,2.814,2.263,3.022c1.461,0.208,2.811-0.808,3.022-2.265
	c0.207-1.461-0.809-2.813-2.268-3.022C-142.619-353.572-143.97-352.557-144.177-351.1z"/>
<circle fill="#FFFFFF" cx="-150.029" cy="-366.82" r="2.671"/>
<circle fill="#FFFFFF" cx="-137.93" cy="-372.134" r="2.669"/>
<path fill="#FFFFFF" d="M-94.386-356.098c-0.209,1.459,0.807,2.812,2.266,3.018c1.46,0.21,2.811-0.807,3.02-2.263
	c0.208-1.46-0.805-2.813-2.268-3.021C-92.826-358.574-94.178-357.557-94.386-356.098z"/>
<circle fill="#FFFFFF" cx="-150.945" cy="-345.208" r="2.671"/>
<path fill="#F3DAC2" d="M-182.683-296.316c-0.957,6.701,3.699,12.904,10.4,13.863c6.699,0.956,12.904-3.699,13.862-10.398
	c0.958-6.703-3.698-12.909-10.396-13.866C-175.521-307.675-181.728-303.018-182.683-296.316z"/>
<g>
	<path fill="#F3DAC2" d="M-128.863-313.168c0.104,10.312,6.088,13.355,13.434,13.281l0,0c7.348-0.072,13.273-3.232,13.17-13.548
		l-0.549-55.247c-0.104-10.316-6.141-18.619-13.489-18.547l0,0c-7.346,0.073-13.217,8.495-13.115,18.811L-128.863-313.168z"/>
	<path fill="#F5F6F6" d="M-132.166-351.445l-0.146-14.901c-0.122-12.293,7.056-22.332,16.038-22.423
		c8.979-0.088,16.357,9.807,16.479,22.099l0.15,14.9L-132.166-351.445z"/>
	<path fill="#F3DAC2" d="M-111.61-299.703c8.901-2.977,9.915-8.844,7.865-14.976l0,0c-2.053-6.138-6.392-10.212-15.29-7.237
		l-48.078,18.492c-8.901,2.978-14.057,7.808-12.006,13.941l0,0c2.053,6.136,11.328,6.145,20.229,3.168L-111.61-299.703z"/>
</g>
<g>
	<path fill="#3B2517" d="M40.921,19.538c0,0.623,3.561,18.678,0.68,21.998c-3.248,3.748-15.827,3.349-20.185,3.349
		c-4.91,0-15.104,0.696-18.537-3.825c-4.086-5.389-0.965-16.485-0.965-21.521c0-9.255,8.733-16.756,19.502-16.756
		C32.188,2.781,40.921,10.283,40.921,19.538z"/>
</g>
<ellipse fill="#F3DAC2" cx="21.289" cy="22.831" rx="16.258" ry="19.38"/>
<g>
	<path fill="#3B2416" d="M31.193,20.428c-0.06,0-0.12-0.018-0.173-0.055c-0.039-0.027-3.944-2.677-7.189-0.315
		c-0.142,0.103-0.337,0.069-0.437-0.081c-0.101-0.149-0.066-0.354,0.078-0.458c3.599-2.619,7.854,0.278,7.897,0.308
		c0.144,0.101,0.182,0.304,0.086,0.455C31.396,20.378,31.295,20.428,31.193,20.428z"/>
</g>
<g>
	<path fill="#3B2416" d="M11.601,20.473c-0.093,0-0.186-0.04-0.251-0.114c-0.117-0.14-0.099-0.347,0.038-0.462
		c3.092-2.632,7.076-0.207,7.117-0.184c0.153,0.097,0.202,0.299,0.105,0.453s-0.298,0.201-0.453,0.106
		c-0.145-0.092-3.621-2.196-6.345,0.122C11.75,20.446,11.675,20.473,11.601,20.473z"/>
</g>
<g opacity="0.8">
	<path fill="#F8C8D2" d="M9.998,27.38c0.06,0.757,1.598,1.257,3.439,1.114c1.841-0.146,3.285-0.878,3.228-1.635
		c-0.062-0.764-1.602-1.259-3.441-1.117C11.381,25.889,9.938,26.621,9.998,27.38z"/>
</g>
<g opacity="0.8">
	<path fill="#F8C8D2" d="M25.268,27.479c0.023,0.761,1.552,1.334,3.417,1.278c1.863-0.054,3.354-0.717,3.331-1.478
		c-0.027-0.764-1.557-1.333-3.418-1.28C26.732,26.056,25.243,26.718,25.268,27.479z"/>
</g>
<g>
	<g>
		<path fill="#3B2416" d="M24.699,25.576c-0.049,1.252,0.77,2.306,1.826,2.35c1.059,0.042,1.955-0.942,2.001-2.198
			c0.052-1.255-0.765-2.306-1.821-2.349C25.647,23.337,24.751,24.323,24.699,25.576z"/>
	</g>
	<g>
		<path fill="#3B2416" d="M27.417,24.37c-0.048,0-0.095-0.01-0.142-0.031c-0.161-0.08-0.232-0.274-0.156-0.438l0.422-0.882
			c0.078-0.164,0.27-0.234,0.437-0.156c0.162,0.077,0.233,0.273,0.154,0.437l-0.421,0.883C27.657,24.301,27.54,24.37,27.417,24.37z"
			/>
	</g>
	<g>
		<path fill="#3B2416" d="M26.686,24.199c-0.008,0-0.013,0-0.021-0.003c-0.181-0.011-0.318-0.167-0.308-0.347l0.063-0.978
			c0.013-0.181,0.16-0.327,0.348-0.307c0.181,0.011,0.318,0.167,0.307,0.347l-0.063,0.981
			C27.001,24.064,26.856,24.199,26.686,24.199z"/>
	</g>
	<g>
		<path fill="#3B2416" d="M25.96,24.242c-0.143,0-0.275-0.095-0.315-0.238l-0.269-0.94c-0.05-0.175,0.052-0.356,0.225-0.405
			c0.174-0.051,0.356,0.049,0.406,0.225l0.268,0.94c0.05,0.175-0.051,0.356-0.225,0.404C26.021,24.237,25.99,24.242,25.96,24.242z"
			/>
	</g>
</g>
<g>
	<g>
		<path fill="#3B2416" d="M13.77,25.168c-0.053,1.243,0.756,2.284,1.805,2.327c1.043,0.041,1.933-0.935,1.982-2.176
			c0.051-1.243-0.759-2.285-1.804-2.326C14.705,22.95,13.816,23.927,13.77,25.168z"/>
	</g>
	<g>
		<path fill="#3B2416" d="M16.456,23.977c-0.046,0-0.094-0.01-0.139-0.031c-0.163-0.078-0.234-0.272-0.155-0.435l0.414-0.878
			c0.08-0.164,0.275-0.232,0.436-0.155c0.165,0.076,0.235,0.272,0.158,0.436l-0.416,0.876
			C16.697,23.909,16.579,23.977,16.456,23.977z"/>
	</g>
	<g>
		<path fill="#3B2416" d="M15.734,23.806c-0.008,0-0.013,0-0.022,0c-0.18-0.013-0.317-0.169-0.306-0.349l0.062-0.97
			c0.013-0.178,0.161-0.323,0.349-0.304c0.181,0.012,0.318,0.168,0.308,0.349L16.061,23.5C16.05,23.672,15.904,23.806,15.734,23.806
			z"/>
	</g>
	<g>
		<path fill="#3B2416" d="M15.015,23.851c-0.143,0-0.272-0.094-0.315-0.237l-0.267-0.933c-0.051-0.174,0.049-0.356,0.224-0.404
			c0.175-0.054,0.355,0.048,0.406,0.224l0.266,0.932c0.051,0.176-0.05,0.355-0.223,0.405C15.074,23.847,15.044,23.851,15.015,23.851
			z"/>
	</g>
</g>
<g>
	<path fill="#E7CAB8" d="M20.333,29.697c0.261-0.215,0.725-0.208,1.034-0.273c0.048-0.01-0.095-1.783-0.091-1.965
		c0.02-1.335-0.043-1.848,0.083-3.176c0.008-0.101,0.36-0.006,0.345,0.126c-0.096,1.017,0.02,1.193-0.027,2.212
		c-0.044,0.987-0.069,1.928,0.118,2.903c0.006,0.028-0.015,0.053-0.04,0.058c-0.524,0.15-0.82,0.086-0.835,0.817
		c-0.015,0.846,0.571,1.285,1.272,1.096c0.108-0.03,0.417,0.151,0.273,0.188c-0.64,0.169-1.284-0.019-1.807-0.399
		C20.194,30.945,19.796,30.14,20.333,29.697z"/>
</g>
<g>
	<path fill="#EE5764" d="M21.437,37.17c-1.248,0-2.661-0.321-4.155-1.256c-0.307-0.19-0.4-0.595-0.208-0.901
		c0.191-0.308,0.594-0.399,0.901-0.209c4.105,2.557,7.427-0.324,7.46-0.354c0.273-0.242,0.686-0.217,0.925,0.053
		c0.241,0.27,0.217,0.685-0.055,0.926C26.278,35.453,24.299,37.17,21.437,37.17z"/>
</g>
<g>
	<path fill="#B5A6C5" d="M-44.355,14.679c0-8.732,6.506-14.987,14.531-14.987c8.022,0,14.526,6.255,14.526,14.987"/>
</g>
<g>
	<path fill="#FCE6D2" d="M-35.529,1.185l5.655,3.216l5.68-3.245c-1.732-0.795-3.637-1.235-5.638-1.235
		C-31.854-0.078-33.779,0.373-35.529,1.185z"/>
</g>
<g>
	<g>
		<circle fill="#704195" cx="-29.791" cy="6.115" r="0.541"/>
	</g>
	<g>
		<path fill="#AA7CB3" d="M-29.316,6.137c0,0.301-0.244,0.543-0.543,0.543c-0.298,0-0.541-0.242-0.541-0.543
			c0-0.297,0.242-0.539,0.541-0.539C-29.561,5.598-29.316,5.84-29.316,6.137z"/>
	</g>
	<g>
		<g>
			<path fill="#704195" d="M-29.904,5.988c0,0.07-0.065,0.127-0.15,0.127l0,0c-0.08,0-0.146-0.057-0.146-0.127V5.957
				c0-0.072,0.065-0.127,0.146-0.127l0,0c0.085,0,0.15,0.055,0.15,0.127V5.988z"/>
		</g>
		<g>
			<path fill="#704195" d="M-29.519,5.988c0,0.07-0.066,0.127-0.146,0.127l0,0c-0.082,0-0.147-0.057-0.147-0.127V5.957
				c0-0.072,0.065-0.127,0.147-0.127l0,0c0.08,0,0.146,0.055,0.146,0.127V5.988z"/>
		</g>
		<g>
			<path fill="#704195" d="M-29.519,6.32c0,0.07-0.066,0.127-0.146,0.127l0,0c-0.082,0-0.147-0.057-0.147-0.127V6.287
				c0-0.07,0.065-0.127,0.147-0.127l0,0c0.08,0,0.146,0.057,0.146,0.127V6.32z"/>
		</g>
		<g>
			<path fill="#704195" d="M-29.895,6.32c0,0.07-0.065,0.127-0.147,0.127l0,0c-0.083,0-0.148-0.057-0.148-0.127V6.287
				c0-0.07,0.065-0.127,0.148-0.127l0,0c0.083,0,0.147,0.057,0.147,0.127V6.32z"/>
		</g>
	</g>
</g>
<g>
	<g>
		<path fill="#704195" d="M-29.25,8.115c0,0.299-0.242,0.543-0.541,0.543c-0.301,0-0.541-0.244-0.541-0.543
			c0-0.297,0.239-0.541,0.541-0.541C-29.492,7.574-29.25,7.818-29.25,8.115z"/>
	</g>
	<g>
		<circle fill="#AA7CB3" cx="-29.858" cy="8.139" r="0.542"/>
	</g>
	<g>
		<g>
			<path fill="#704195" d="M-29.904,7.99c0,0.07-0.065,0.125-0.15,0.125l0,0c-0.08,0-0.146-0.055-0.146-0.125V7.957
				c0-0.07,0.065-0.127,0.146-0.127l0,0c0.085,0,0.15,0.057,0.15,0.127V7.99z"/>
		</g>
		<g>
			<path fill="#704195" d="M-29.519,7.99c0,0.07-0.066,0.125-0.146,0.125l0,0c-0.082,0-0.147-0.055-0.147-0.125V7.957
				c0-0.07,0.065-0.127,0.147-0.127l0,0c0.08,0,0.146,0.057,0.146,0.127V7.99z"/>
		</g>
		<g>
			<path fill="#704195" d="M-29.519,8.32c0,0.07-0.066,0.129-0.146,0.129l0,0c-0.082,0-0.147-0.059-0.147-0.129V8.289
				c0-0.072,0.065-0.127,0.147-0.127l0,0c0.08,0,0.146,0.055,0.146,0.127V8.32z"/>
		</g>
		<g>
			<path fill="#704195" d="M-29.895,8.32c0,0.07-0.065,0.129-0.147,0.129l0,0c-0.083,0-0.148-0.059-0.148-0.129V8.289
				c0-0.072,0.065-0.127,0.148-0.127l0,0c0.083,0,0.147,0.055,0.147,0.127V8.32z"/>
		</g>
	</g>
</g>
<g>
	<g>
		<circle fill="#704195" cx="-29.791" cy="10.412" r="0.541"/>
	</g>
	<g>
		<path fill="#AA7CB3" d="M-29.316,10.432c0,0.301-0.244,0.543-0.543,0.543c-0.298,0-0.541-0.242-0.541-0.543
			c0-0.297,0.242-0.539,0.541-0.539C-29.561,9.893-29.316,10.135-29.316,10.432z"/>
	</g>
	<g>
		<g>
			<path fill="#704195" d="M-29.904,10.285c0,0.07-0.065,0.127-0.15,0.127l0,0c-0.08,0-0.146-0.057-0.146-0.127v-0.033
				c0-0.072,0.065-0.127,0.146-0.127l0,0c0.085,0,0.15,0.055,0.15,0.127V10.285z"/>
		</g>
		<g>
			<path fill="#704195" d="M-29.519,10.285c0,0.07-0.066,0.127-0.146,0.127l0,0c-0.082,0-0.147-0.057-0.147-0.127v-0.033
				c0-0.072,0.065-0.127,0.147-0.127l0,0c0.08,0,0.146,0.055,0.146,0.127V10.285z"/>
		</g>
		<g>
			<path fill="#704195" d="M-29.519,10.617c0,0.07-0.066,0.125-0.146,0.125l0,0c-0.082,0-0.147-0.055-0.147-0.125v-0.035
				c0-0.07,0.065-0.125,0.147-0.125l0,0c0.08,0,0.146,0.055,0.146,0.125V10.617z"/>
		</g>
		<g>
			<path fill="#704195" d="M-29.895,10.617c0,0.07-0.065,0.125-0.147,0.125l0,0c-0.083,0-0.148-0.055-0.148-0.125v-0.035
				c0-0.07,0.065-0.125,0.148-0.125l0,0c0.083,0,0.147,0.055,0.147,0.125V10.617z"/>
		</g>
	</g>
</g>
<g>
	<path fill="#3B2517" d="M21.582,9.686c0,0-2.829-3.199-5.218,2.77c-2.576,6.438-6.917,6.811-7.555,7.023
		c0,0-3.646,2.686-1.649,6.815C8.956,30.006,6.8,30.975,6.8,30.975s-4.342,2.203-4.771,0C1.608,28.776-0.948,5.006,13.102,1.386
		C27.152-2.233,21.582,9.686,21.582,9.686z"/>
</g>
<g>
	<path fill="#3B2517" d="M21.556,9.66c0,0,2.834-3.201,5.219,2.772c2.58,6.438,6.917,6.81,7.556,7.023c0,0,3.642,2.684,1.652,6.81
		c-1.795,3.714,0.356,4.684,0.356,4.684s4.341,2.2,4.769,0c0.424-2.198,2.975-25.967-11.071-29.591
		C15.987-2.258,21.556,9.66,21.556,9.66z"/>
</g>
</svg>
