<?xml version="1.0" encoding="utf-8"?>
<!-- Generator: Adobe Illustrator 16.0.0, SVG Export Plug-In . SVG Version: 6.00 Build 0)  -->
<!DOCTYPE svg PUBLIC "-//W3C//DTD SVG 1.1//EN" "http://www.w3.org/Graphics/SVG/1.1/DTD/svg11.dtd">
<svg version="1.1" id="Layer_1" xmlns="http://www.w3.org/2000/svg" xmlns:xlink="http://www.w3.org/1999/xlink" x="0px" y="0px"
	 width="111.136px" height="148px" viewBox="0 0 111.136 148" enable-background="new 0 0 111.136 148" xml:space="preserve">
<g>
	<g>
		<path fill="#E2DFCF" d="M727.963,635.015c-5.66,4.591-4.494,6.074-8.299,5.32L90.183,495.039
			c-3.806-0.753-6.262-4.358-5.483-8.044l298.577-187.536c3.909-3.568-62.404-19.296,8.298-5.319l588.521,101.479
			c3.807,0.754,6.262,4.352,5.48,8.044L727.963,635.015z"/>
		<path fill="#F7F3D5" d="M725.213,629.88c-5.66,4.59-4.49,6.074-8.297,5.32L87.435,489.904c-3.808-0.753-6.262-4.359-5.483-8.045
			l273.401-192.417c4.142-3.776,4.494-6.07,8.3-5.318l613.694,106.358c3.807,0.756,6.262,4.353,5.482,8.046L725.213,629.88z"/>
	</g>
	<g>
		<g>
			<g>
				<polygon fill="#FEF8E2" points="594.279,606.544 581.002,603.316 868.506,372.321 883.516,374.908 				"/>
			</g>
		</g>
		<g>
			<g>
				<polygon fill="#FEF8E2" points="517.777,587.874 502.83,586.127 786.969,358.011 801.979,360.599 				"/>
			</g>
		</g>
		<polygon fill="#FEF8E2" points="438.098,571.236 423.767,567.928 702.947,343.362 717.959,345.95 		"/>
		<g>
			<g>
				<polygon fill="#FEF8E2" points="363.133,553.932 349.779,550.848 625.361,330.709 640.371,333.3 				"/>
			</g>
		</g>
		<g>
			<g>
				<polygon fill="#FEF8E2" points="289.313,536.937 273.75,532.725 548.596,316.84 563.604,319.428 				"/>
			</g>
		</g>
		<g>
			<g>
				<polygon fill="#FEF8E2" points="218.575,520.49 203.986,516.692 473.093,303.948 488.103,306.536 				"/>
			</g>
		</g>
		<g>
			<g>
				<polygon fill="#FEF8E2" points="154.932,505.348 138.365,501.494 405.896,292.139 420.907,294.728 				"/>
			</g>
		</g>
		<g>
			<g>
				<polygon fill="#FEF8E2" points="680.979,627.229 664.32,623.176 952.334,386.644 968.303,389.397 				"/>
			</g>
		</g>
	</g>
</g>
<path fill="#3B2518" d="M674.064,353.26c-2.217-21.997,2.92-41.604-10.807-57.88c-5.984-7.106-17.854-11.165-26.854-12.63
	c-11.803-1.935-21.699,7.88-33.23,7.644c-1.541-0.688-3.424-0.612-5.09,0.803c-8.068,6.839-8.779,18.282-15.965,25.778
	c-6.682,6.983-14.32,12.972-15.861,23.298c-0.953,6.474,1.229,14.361-3.527,19.559c-3.801,4.111-9.289,6.88-13.494,10.617
	c-8.262,7.413-13.732,19.163-15.277,30.101c-1.436,10.363,5.311,17.545,11.932,23.914c8.592,8.255-3.318,19.961,6.506,28.807
	c5.939,5.359,15.301,5.52,22.744,5.144c9.311-0.455,14.869-4.679,22.031-9.062c1.086,0.371,2.359,0.262,3.68-0.62
	c10.24-6.78,22.064-9.024,33.4-13.06c10.412-3.699,9.27-10.407,17.578-17.761C669.934,401.889,676.527,377.678,674.064,353.26z"/>
<g>
	<g>
		<g>
			<path fill="#EFD1B9" d="M639.012,474.593c0.584,10.821-4.994,14.387-12.098,14.77l0,0c-7.1,0.383-13.031-2.561-13.615-13.383
				l-3.127-57.97c-0.584-10.821,4.697-19.906,11.799-20.29l0,0c7.102-0.382,13.33,8.08,13.914,18.903L639.012,474.593z"/>
			<path fill="#EFD1B9" d="M626.375,489.392c-9.072,0.293-11.969-4.806-12.176-11.202l0,0c-0.209-6.4,2.352-11.673,11.424-11.969
				l49.068,0.922c9.074-0.293,16.133,2.159,16.34,8.558l0,0c0.209,6.398-7.443,9.324-16.518,9.619L626.375,489.392z"/>
		</g>
		<path fill="#F7F7F7" d="M639.631,430.728l-0.787-14.586c-0.648-12.031-8.297-21.402-17.088-20.927
			c-8.791,0.474-15.391,10.613-14.74,22.645l0.785,14.586L639.631,430.728z"/>
	</g>
	<circle fill="#EFD1B9" cx="680.703" cy="474.854" r="12.068"/>
</g>
<path fill="#F5DCC3" d="M661.414,344.479c-2.641,25.07-21.137,43.668-41.316,41.55c-20.18-2.126-34.4-24.17-31.76-49.241
	c2.637-25.065,21.137-43.67,41.314-41.545C649.83,297.364,664.049,319.411,661.414,344.479z"/>
<path fill="none" stroke="#3B2416" stroke-linecap="round" stroke-miterlimit="10" d="M612.717,331.198
	c0,0,10.379-5.674,18.197,0.877"/>
<path fill="none" stroke="#3B2416" stroke-linecap="round" stroke-miterlimit="10" d="M641.939,333.52c0,0,9.219-4.664,15.508,1.721
	"/>
<g opacity="0.8">
	<path fill="#FACAD4" d="M623.848,347.772c-0.096,1.974-4.059,3.391-8.852,3.161c-4.795-0.232-8.605-2.024-8.51-3.999
		c0.096-1.976,4.059-3.396,8.855-3.161C620.137,344.001,623.943,345.793,623.848,347.772z"/>
	<g>
		<path fill="#FACAD4" d="M622.377,347.867c-0.807,3.775-13.041,2.242-14.385-0.832c-0.969-2.215,7.295-2.127,8.039-2.07
			c1.838,0.139,6.096,0.792,6.367,3.195c0.16,1.409,3.064,0.684,2.898-0.775c-0.438-3.857-6.926-4.666-9.84-4.727
			c-3.303-0.07-9.553,0.205-10.441,4.371c-1.256,5.885,18.813,7.64,20.305,0.648C625.639,346.184,622.666,346.512,622.377,347.867z"
			/>
	</g>
</g>
<path opacity="0.8" fill="#FACAD4" d="M660.945,348.957c-0.084,1.76-3.615,3.023-7.893,2.815c-4.273-0.205-7.666-1.802-7.584-3.561
	c0.086-1.77,3.619-3.026,7.893-2.824C657.637,345.599,661.031,347.194,660.945,348.957z"/>
<g>
	<path fill="#3B2416" d="M626.676,345.319c-0.139,2.906-2.244,5.169-4.691,5.053c-2.447-0.119-4.32-2.576-4.178-5.481
		c0.139-2.909,2.238-5.17,4.688-5.052C624.941,339.956,626.813,342.412,626.676,345.319z"/>
	
		<line fill="none" stroke="#3B2416" stroke-linecap="round" stroke-miterlimit="10" x1="619.924" y1="339.098" x2="620.713" y2="341.224"/>
	
		<line fill="none" stroke="#3B2416" stroke-linecap="round" stroke-miterlimit="10" x1="622.49" y1="338.704" x2="622.438" y2="340.974"/>
	
		<line fill="none" stroke="#3B2416" stroke-linecap="round" stroke-miterlimit="10" x1="624.916" y1="339.105" x2="624.105" y2="341.226"/>
</g>
<g>
	<path fill="#3B2416" d="M651.422,346.396c-0.139,2.881-2.219,5.12-4.645,5.003c-2.42-0.117-4.273-2.549-4.133-5.426
		c0.137-2.877,2.215-5.12,4.639-5.001C649.707,341.089,651.561,343.516,651.422,346.396z"/>
	
		<line fill="none" stroke="#3B2416" stroke-linecap="round" stroke-miterlimit="10" x1="644.738" y1="340.238" x2="645.521" y2="342.344"/>
	
		<line fill="none" stroke="#3B2416" stroke-linecap="round" stroke-miterlimit="10" x1="647.279" y1="339.849" x2="647.227" y2="342.094"/>
	
		<line fill="none" stroke="#3B2416" stroke-linecap="round" stroke-miterlimit="10" x1="649.684" y1="340.246" x2="648.877" y2="342.342"/>
</g>
<path fill="#E9CCB9" d="M636.879,355.156c-0.555-0.545-1.625-0.623-2.328-0.837c-0.111-0.034,0.582-4.099,0.611-4.518
	c0.221-3.084,0.473-4.262,0.453-7.355c0-0.235-0.832-0.086-0.828,0.222c0.016,2.365-0.283,2.752-0.385,5.115
	c-0.1,2.289-0.23,4.463-0.863,6.681c-0.018,0.062,0.025,0.116,0.084,0.138c1.182,0.452,1.877,0.366,1.76,2.062
	c-0.135,1.952-1.576,2.849-3.162,2.27c-0.238-0.088-0.992,0.263-0.664,0.382c1.438,0.522,2.967,0.214,4.252-0.559
	C636.951,358.067,638.029,356.293,636.879,355.156z"/>
<path fill="none" stroke="#EF5765" stroke-width="2" stroke-linecap="round" stroke-miterlimit="10" d="M623.072,365.756
	c0,0,7.818,8.293,18.943,2.645"/>
<path fill="#3B2416" d="M640.848,308.075c0,0-9.322-11.024-19.197,4.942c-12.658,20.471-22.221,20.398-23.646,21.9
	c-1.428,1.502-8.285,10.77-3.016,22.873c4.736,10.889-9.91,18.658-9.91,18.658s-14.158-2.037-14.865-8.271
	c-0.715-6.239-1.926-80.642,45.375-85.946C662.893,276.93,640.848,308.075,640.848,308.075z"/>
<g>
	<g>
		<path fill="#EFD1B9" d="M212.801,49.884c3.865,9.213,13.92,13.778,22.461,10.195l79.234-36.786
			c8.541-3.581,25.088-15.218,21.227-24.429l0,0c-3.863-9.214-21.994-7.896-30.537-4.311L220.49,24.175
			C211.947,27.756,208.939,40.669,212.801,49.884L212.801,49.884z"/>
	</g>
	<path fill="#FFFFFF" d="M288.582,18.026c3.832,8.155,8.473,13.361,11.369,12.203l26.115-12.276
		c5.332-2.506,6.543-11.15,2.711-19.303l0,0c-3.834-8.158-11.047-9.576-16.375-7.069l-26.396,8.946
		C283.242,1.716,284.746,9.871,288.582,18.026L288.582,18.026z"/>
	<g>
		<g>
			<path fill="#B39AC9" d="M362.119,52.926c-0.57,0.107-1.154,0.148-1.719,0.116c-4.086-0.222-5.1-4.854-9.055-7.148
				c-10.326-5.97-23.402-15.932-27.898-21.256c-0.057-0.071-0.098-0.116-0.127-0.144c-0.004-0.003-0.01-0.006-0.016-0.008
				c0.063,0.143-0.021,0.026-0.037-0.021c-0.377-0.18-0.764-0.327-1.074-0.265c-0.717,0.145-1.355,0.698-1.953,1.082
				c-2.295,1.479-4.844-2.536-2.549-4.014c1.35-0.873,2.463-1.752,3.936-1.797c0.172-0.28,0.572-0.337,0.922-0.537
				c3.268-1.896,1.416-8.88,0.17-12.779c-0.641-2.036-1.723-3.884-2.779-5.777c-2.563-4.588-3.285-4.019-7.23-5.871
				c-1.072-0.497-1.125-0.02-1.857-1.139c-0.691-1.37-0.582-1.643,0.4-2.612c1.088-1.077,10.859-7.08,12.516-7.627
				c0.766-0.254,1.451-0.479,2.09-0.685C333.113-9.125,349.316,12.834,362.119,52.926z"/>
			<path fill="#F5F6F6" d="M325.857-17.555c4.961-1.583,6.424-1.584,10.084,1.222c6.195,4.746,12.191,16.012,15.248,22.192
				c3.088,6.249,6.723,13.128,9.709,19.874c4.729,10.675,9.098,20.977,4.859,24.552c-0.129,0.265-0.273,0.527-0.459,0.784
				c-0.758,1.057-1.934,1.629-3.18,1.857C349.316,12.834,333.113-9.125,325.857-17.555z"/>
		</g>
		<path fill="#A08ABB" d="M359.73,52.959c-3.832-12.302-17.539-52.933-36.154-69.752c0.063-0.025,0.141-0.063,0.191-0.077
			c0.766-0.255,1.451-0.479,2.09-0.686c7.256,8.431,23.459,30.39,36.262,70.483c-0.57,0.106-1.154,0.146-1.719,0.114
			C360.166,53.031,359.945,53,359.73,52.959z"/>
	</g>
</g>
<path fill="#3B2416" d="M640.67,308.001c0,0,11.885-4.432,14.598,14.854c3.125,22.209,12.275,29.087,12.77,31.183
	c0.494,2.098-4.117,21.138-15.139,28.852c-9.912,6.938,2.037,15.573,2.037,15.573s3.885,6.476,7.766,1.4
	c3.889-5.072,11.066-81.643,6.947-89.079C645.42,267.051,640.67,308.001,640.67,308.001z"/>
<path fill="#F5DCC3" d="M506.875,447.891c-0.627,12.97-8.389,23.132-17.343,22.698l-85.181-6.231
	c-8.951-0.434-25.234-10.782-24.607-23.751l0,0c0.628-12.972,18.156-19.409,27.105-18.978l84.953,1.994
	C500.758,424.057,507.503,434.92,506.875,447.891L506.875,447.891z"/>
<polygon fill="#F5DCC3" points="618.715,398.231 599.393,394.979 600.041,391.121 602.34,377.449 621.666,380.7 "/>
<path fill="#B39AC9" d="M614.313,394.852c-2.295-2.769-5.398-4.167-8.799-4.594c-1.752-0.616-3.686-0.814-5.631-0.767
	c-4.484,0.109-8.084,1.301-11.654,3.409c-1.172,0.352-2.689,1.277-4.885,3.105c-7.916,6.599-13.582,16.396-19.451,25.098
	c-6.055,8.972-11.828,11.242-23.342,8.74c-6.461-1.402-10.867-1.138-15.668-5.769c-3.729-3.601-4.459-5.472-8.6-8.447
	c-0.911-1.02-4.814-2.64-7.129-3.325c-1.643-0.483-17.014-3.846-25.852-3.238c-4.52,0.308-9.03,1.454-13.57,1.827
	c-5.014,0.402-10.006,0.672-14.99,1.601c-0.316-0.103-0.674-0.123-1.075-0.042c-6.958,1.398-14.003,1.191-20.786,3.811
	c-6.236,2.41-7.021,10.767-10.793,15.858c-4.174,5.647-8.848,9.896-11.279,16.891c-1.301,3.724-1.686,7.729-2.4,11.594
	c-0.869,4.612-3.775,8.848-5.731,12.973c-0.489,1.023-0.191,2.54,0.634,3.194c6.068,4.813,14.223,4.067,21.428,3.982
	c11.525-0.153,22.961,1.668,34.453,2.168c10.341,0.459,21.681-0.118,32.287-0.689c7.857-0.424,12.002-2.268,18.365-0.99
	c5.656,1.136,9.998,0.293,15.627,1.592c10.617,2.463,21.658,3.95,32.463,5.388c9.465,1.259,19.072-1.713,28.002-5.566
	c1.502-0.647,2.947-1.388,4.371-2.168c0.082-0.004,0.158-0.002,0.242-0.006c7.283-4.395,43.615-7.994,44.43-32.294l1.248-31.802
	C635.557,403.961,628.771,396.704,614.313,394.852z"/>
<path fill="#F5DCC3" d="M619.602,396.81c-0.838-2.831-0.295-1.418-0.975-2.283c-2.307-2.942-5.41-4.824-8.682-6.441
	c-0.355-0.377-0.848-0.624-1.451-0.7c-0.578-0.271-1.158-0.539-1.738-0.807c-0.225-0.104-0.443-0.166-0.658-0.209
	c-0.059-0.069-0.109-0.145-0.176-0.208c-0.035-0.032-0.072-0.061-0.109-0.093c-0.107-0.091-0.221-0.172-0.348-0.244
	c-0.053-0.03-0.107-0.059-0.164-0.086c-0.129-0.06-0.266-0.105-0.408-0.143c-0.063-0.017-0.119-0.037-0.184-0.049
	c-0.213-0.041-0.436-0.062-0.68-0.048c-0.047,0.003-0.086,0.015-0.133,0.021c-0.043,0-0.084-0.008-0.131-0.006
	c-0.195,0.01-0.371,0.042-0.541,0.084c-0.051,0.013-0.1,0.027-0.146,0.042c-0.121,0.038-0.234,0.081-0.342,0.131
	c-0.039,0.021-0.084,0.039-0.125,0.062c-1.291,0.328-2.016,1.007-2.002,2.046c0,0.011-0.006,0.021-0.006,0.03
	c0,0.015-0.004,0.029-0.004,0.044c-0.006,0.027-0.012,0.053-0.014,0.063c-0.002,0.007-0.01,0.027-0.029,0.079
	c-0.066,0.194-0.129,0.387-0.186,0.581c-0.08,0.293-0.076,0.689,0.184,0.896c0.01,0.01,0.021,0.011,0.033,0.018
	c0.771,0.873,6.764,7.481,13.992,10.561C621.303,403.012,620.191,398.109,619.602,396.81z"/>
<circle fill="#FFFFFF" cx="451.733" cy="451.051" r="2.915"/>
<circle fill="#FFFFFF" cx="459.332" cy="429.564" r="2.914"/>
<circle fill="#FFFFFF" cx="485.184" cy="419.669" r="2.915"/>
<circle fill="#FFFFFF" cx="472.439" cy="450.886" r="2.915"/>
<circle fill="#FFFFFF" cx="493.875" cy="434.679" r="2.915"/>
<circle fill="#FFFFFF" cx="455.781" cy="471.978" r="2.914"/>
<circle fill="#FFFFFF" cx="487.743" cy="467.1" r="2.915"/>
<circle fill="#FFFFFF" cx="528.061" cy="449.745" r="2.914"/>
<circle fill="#FFFFFF" cx="511.641" cy="460.448" r="2.915"/>
<circle fill="#FFFFFF" cx="547.849" cy="442.413" r="2.915"/>
<circle fill="#FFFFFF" cx="437.694" cy="422.231" r="2.915"/>
<circle fill="#FFFFFF" cx="424.095" cy="462.252" r="2.915"/>
<circle fill="#FFFFFF" cx="432.963" cy="442.772" r="2.915"/>
<circle fill="#FFFFFF" cx="542.124" cy="475.032" r="2.915"/>
<circle fill="#FFFFFF" cx="569.275" cy="445.661" r="2.914"/>
<circle fill="#FFFFFF" cx="509.765" cy="425.687" r="2.915"/>
<circle fill="#FFFFFF" cx="561.495" cy="472.117" r="2.915"/>
<circle fill="#FFFFFF" cx="613.104" cy="460.571" r="2.915"/>
<circle fill="#FFFFFF" cx="619.132" cy="439.1" r="2.915"/>
<circle fill="#FFFFFF" cx="629.914" cy="422.402" r="2.916"/>
<circle fill="#FFFFFF" cx="617.264" cy="415.462" r="2.914"/>
<circle fill="#FFFFFF" cx="565.45" cy="428.888" r="2.915"/>
<circle fill="#FFFFFF" cx="628.839" cy="445.999" r="2.915"/>
<g>
	<g>
		<path fill="#F5DCC3" d="M22.076,145.871c9.95,1.684,19.281-4.426,20.846-13.648l11.465-87.486
			c1.564-9.223,0.585-29.632-9.361-31.318l0,0c-9.949-1.688-18.627,14.493-20.189,23.718L4.305,125.41
			C2.738,134.633,12.129,144.182,22.076,145.871L22.076,145.871z"/>
	</g>
	<path fill="#FFFFFF" d="M36.251,61.734c8.979,1.133,15.886,0.087,16.441-2.852l3.465-27.448
		c0.706-5.601-6.003-11.064-14.986-12.198l0,0c-8.984-1.133-14.034,3.954-14.741,9.555l-6.446,25.944
		C19.522,57.588,27.266,60.6,36.251,61.734L36.251,61.734z"/>
	<g>
		<g>
			<path fill="#B39AC9" d="M106.373,25.8c-0.265,0.524-0.588,1.018-0.959,1.453c-2.673,3.151-7.02,1.137-11.279,2.914
				c-11.111,4.664-27.113,9.094-34.141,9.458c-0.094,0.004-0.152,0.01-0.193,0.014c-0.006,0.002-0.012,0.007-0.018,0.011
				c0.154,0.034,0.011,0.034-0.037,0.014c-0.379,0.192-0.73,0.417-0.869,0.705c-0.324,0.665-0.268,1.516-0.324,2.231
				c-0.213,2.749-4.998,2.348-4.786-0.402c0.122-1.619,0.095-3.049,0.96-4.264c-0.121-0.309,0.077-0.664,0.129-1.066
				c0.472-3.789-6.275-6.564-10.174-7.945c-2.029-0.73-4.176-0.988-6.346-1.295c-5.255-0.74-5.239,0.188-9.14,2.227
				c-1.054,0.563-0.702,0.896-2.05,0.801c-1.524-0.283-1.678-0.533-1.857-1.916c-0.201-1.533,0.939-13.059,1.511-14.728
				c0.263-0.771,0.501-1.46,0.729-2.099C38.74,11.224,66.301,11.605,106.373,25.8z"/>
			<path fill="#F5F6F6" d="M27.528,11.912c1.756-4.958,2.649-6.136,7.142-7.366c7.602-2.083,20.324-0.024,27.165,1.293
				c6.913,1.333,14.665,2.612,21.915,4.33c11.477,2.716,22.432,5.496,22.719,11.091c0.135,0.266,0.258,0.541,0.352,0.844
				c0.386,1.257,0.127,2.553-0.447,3.695C66.301,11.605,38.74,11.224,27.528,11.912z"/>
		</g>
		<path fill="#A08ABB" d="M104.939,27.741C92.702,23.307,51.646,9.514,26.744,14.212c0.02-0.065,0.038-0.151,0.056-0.2
			c0.263-0.771,0.501-1.46,0.727-2.099c11.214-0.688,38.774-0.308,78.846,13.888c-0.264,0.522-0.589,1.018-0.958,1.453
			C105.262,27.434,105.102,27.593,104.939,27.741z"/>
	</g>
</g>
<g>
	<path fill="#C0BEBE" d="M803.033,481.661c0.313,1.523,2.063,1.869-0.545,2.425l-105.744,64.203
		c-2.721-0.831-2.557-0.838-5.287-1.758c0,0-83.018-26.517-83.258-27.416c-0.992-3.73-0.016-3.505,1.488-4.01l158.334-67.108
		c2.605-0.557,4.975,0.231,5.291,1.754L803.033,481.661z"/>
	<path fill="#E7E7E7" d="M803.533,477.797c-1.131-5.387,1.367,3.507,0.785,3.623l-106.871,63.459
		c-2.768-0.786-2.643-0.732-5.297-1.742l-83.506-25.975c-2.771-1.309,1.793-2.527,4.166-3.75l155.598-69.052
		c2.605-0.56,4.979,0.22,5.299,1.743L803.533,477.797z"/>
	<path fill="#B9B9B9" d="M719.352,487.145c0.102,0.381-0.344,0.842-1.006,1.021c0,0-34.291,15.722-35.529,15.827
		c0,0-0.402,0.189-1.482-0.134l-21.766-5.54c-0.73-0.289,0.426-0.666,1.012-1.017l39.348-18.099c2.088-1.096,2.357-0.763,3.76,0.189
		L719.352,487.145z"/>
	<path fill="#929392" d="M684.291,531.271c0.996,0.319,0.74,0.385,0.168,0.638l-5.207,2.29c-1.082,0.495-1.055,0.627-2.338,0.139
		l-5.297-1.876c-1.441-0.539-1.572-0.483-0.275-1.023l5.059-2.111c1.158-0.45,1.066-0.459,2.125-0.068L684.291,531.271z"/>
	<path fill="#929392" d="M674.416,527.98l-5.998-2.107c-0.314-0.117-0.527-0.194-0.707-0.241l-1.463-0.515
		c-0.404-0.147-0.646-0.242-0.854-0.278c-0.107-0.047-0.248-0.101-0.447-0.165l-5.996-2.104c-1.104-0.405-1.006-0.397-2.213,0.068
		l-5.262,2.206c-1.348,0.565-1.215,0.511,0.285,1.071l5.514,1.962c0.502,0.192,0.811,0.292,1.061,0.313
		c0.191,0.076,0.422,0.156,0.721,0.271l5.52,1.959c0.34,0.134,0.592,0.22,0.801,0.271l1.373,0.489c1.33,0.51,1.301,0.37,2.428-0.148
		l5.412-2.394C675.186,528.379,675.451,528.311,674.416,527.98z"/>
	<path fill="#929392" d="M692.291,527.273c0.996,0.32,0.738,0.384,0.168,0.635l-5.205,2.292c-1.086,0.497-1.055,0.628-2.336,0.143
		l-5.299-1.88c-1.443-0.534-1.572-0.481-0.275-1.024l5.059-2.111c1.156-0.445,1.066-0.456,2.127-0.064L692.291,527.273z"/>
	<path fill="#929392" d="M700.865,523.505c0.992,0.321,0.736,0.39,0.166,0.641l-5.205,2.288c-1.086,0.497-1.057,0.628-2.336,0.142
		l-5.303-1.877c-1.441-0.54-1.57-0.482-0.273-1.027l5.059-2.11c1.16-0.444,1.068-0.461,2.129-0.065L700.865,523.505z"/>
	<path fill="#929392" d="M682.307,524.05c0.994,0.322,0.74,0.389,0.168,0.637l-5.205,2.293c-1.086,0.496-1.057,0.628-2.338,0.141
		l-5.301-1.879c-1.441-0.539-1.568-0.481-0.271-1.023l5.061-2.111c1.156-0.445,1.064-0.458,2.121-0.067L682.307,524.05z"/>
	<path fill="#929392" d="M691.229,520.237c0.996,0.32,0.738,0.39,0.166,0.638l-5.203,2.292c-1.082,0.494-1.053,0.628-2.338,0.139
		l-5.297-1.875c-1.443-0.54-1.574-0.484-0.277-1.025l5.057-2.113c1.16-0.445,1.07-0.457,2.131-0.063L691.229,520.237z"/>
	<path fill="#929392" d="M681.896,517.072c0.994,0.321,0.738,0.39,0.168,0.639l-5.207,2.288c-1.084,0.5-1.055,0.63-2.336,0.143
		l-5.301-1.876c-1.443-0.54-1.568-0.484-0.273-1.026l5.061-2.109c1.156-0.448,1.064-0.46,2.125-0.067L681.896,517.072z"/>
	<path fill="#929392" d="M699.98,516.329c0.992,0.319,0.736,0.386,0.164,0.635l-5.207,2.292c-1.08,0.497-1.051,0.629-2.332,0.14
		l-5.299-1.876c-1.445-0.538-1.572-0.482-0.275-1.026l5.057-2.111c1.16-0.444,1.07-0.457,2.127-0.065L699.98,516.329z"/>
	<path fill="#929392" d="M690.059,513.14c0.996,0.319,0.742,0.384,0.17,0.636l-5.207,2.291c-1.08,0.495-1.057,0.631-2.334,0.14
		l-5.303-1.875c-1.441-0.54-1.572-0.486-0.273-1.029l5.059-2.113c1.158-0.444,1.066-0.453,2.123-0.063L690.059,513.14z"/>
	<path fill="#929392" d="M698.588,509.443c0.996,0.32,0.738,0.389,0.166,0.637l-5.201,2.29c-1.088,0.496-1.057,0.632-2.336,0.142
		l-5.305-1.876c-1.441-0.539-1.568-0.486-0.273-1.026l5.063-2.111c1.158-0.447,1.066-0.459,2.125-0.067L698.588,509.443z"/>
	<path fill="#929392" d="M706.6,505.709c0.994,0.323,0.738,0.391,0.166,0.641l-5.203,2.291c-1.084,0.494-1.057,0.628-2.336,0.139
		l-5.303-1.877c-1.441-0.538-1.57-0.482-0.271-1.027l5.057-2.11c1.16-0.443,1.068-0.454,2.127-0.063L706.6,505.709z"/>
	<path fill="#929392" d="M673.012,520.773c0.994,0.321,0.734,0.385,0.164,0.635l-5.205,2.294c-1.084,0.497-1.055,0.626-2.338,0.141
		l-5.299-1.879c-1.443-0.538-1.572-0.485-0.275-1.023l5.059-2.112c1.16-0.447,1.068-0.457,2.127-0.063L673.012,520.773z"/>
	<line fill="#929392" x1="639.639" y1="526.557" x2="697.824" y2="500.466"/>
	<g>
		<path fill="#545554" d="M808.229,477.604c0.078,2.766-1.906,5.071-4.43,5.147l-104.557,65.973
			c-0.961,1.491-5.711-1.795-5.84-6.116l-2.578-87.945c-0.084-2.77,1.992-4.289,4.424-5.147l106.594-49.686
			c3.178-0.988,3.813,2.25,5.723,5.814L808.229,477.604z"/>
		<path fill="#727373" d="M808.932,479.732c0.084,2.769-1.371,3.742-4.377,5.144L700.457,549.57
			c-2.502,0.073-4.59-2.113-4.674-4.882l-2.582-87.946c-0.082-2.771,2.313-4.153,4.375-5.146l105.309-49.763
			c3.4-1.002,4.588,2.112,4.668,4.881L808.932,479.732z"/>
	</g>
</g>
<path fill="#F5DCC3" d="M658.676,502.222c0.398,7.38-5.262,13.684-12.643,14.083c-7.379,0.397-13.684-5.262-14.082-12.641
	c-0.398-7.381,5.26-13.688,12.639-14.085C651.973,489.181,658.277,494.841,658.676,502.222z"/>
<g>
	<path fill="#F5DCC3" d="M601.748,478.732c-1.102,11.208-7.904,13.944-15.887,13.161l0,0c-7.984-0.784-14.127-4.79-13.025-16
		l5.893-60.044c1.102-11.211,8.465-19.664,16.451-18.88l0,0c7.982,0.783,13.561,10.508,12.461,21.718L601.748,478.732z"/>
	<path fill="#F7F7F7" d="M609.008,437.414l1.588-16.197c1.313-13.359-5.533-24.967-15.295-25.925
		c-9.76-0.958-18.734,9.098-20.045,22.456l-1.592,16.196L609.008,437.414z"/>
	<path fill="#F5DCC3" d="M581.689,491.726c-9.396-4.092-9.936-10.569-7.119-17.044l0,0c2.822-6.478,7.932-10.496,17.326-6.406
		l50.523,24.723c9.396,4.092,14.541,9.841,11.723,16.317l0,0c-2.82,6.476-12.912,5.595-22.307,1.506L581.689,491.726z"/>
</g>
</svg>
