<?xml version="1.0" encoding="utf-8"?>
<!-- Generator: Adobe Illustrator 16.0.0, SVG Export Plug-In . SVG Version: 6.00 Build 0)  -->
<!DOCTYPE svg PUBLIC "-//W3C//DTD SVG 1.1//EN" "http://www.w3.org/Graphics/SVG/1.1/DTD/svg11.dtd">
<svg version="1.1" id="Layer_1" xmlns="http://www.w3.org/2000/svg" xmlns:xlink="http://www.w3.org/1999/xlink" x="0px" y="0px"
	 width="30px" height="30px" viewBox="0 0 30 30" enable-background="new 0 0 30 30" xml:space="preserve">
<g>
	<g>
		<path fill="#8CC377" stroke="#8CC377" stroke-miterlimit="10" d="M5.99,1.223v11.398h13.178V2.042l2.457-0.375l-1.404,23.537
			l-1.148,1.438l0.096-10.947H5.99v12.775H2.474V1.223H5.99z"/>
	</g>
</g>
<g>
	<path fill="#FFFFF4" d="M29.203,1.225h-6.829V1.214h-3.518v0.011h-7.072v3.516h7.072V19.16c0,5.335-1.858,6.751-5.011,6.751
		c-1.173,0-2.224-0.243-2.951-0.525l-0.525,2.869c0.89,0.363,2.466,0.646,3.759,0.646c4.688,0,8.246-2.221,8.246-9.457V4.741h6.829
		V1.225z"/>
	<path fill="#8CC377" d="M14.128,29.15c-1.291,0-2.912-0.279-3.854-0.664l-0.188-0.077l0.617-3.366l0.282,0.109
		c0.833,0.323,1.876,0.509,2.861,0.509c2.857,0,4.761-1.105,4.761-6.501V4.991h-7.072V0.975h17.919v4.016h-6.829v14.452
		C22.624,25.885,19.766,29.15,14.128,29.15z M10.652,28.096c0.908,0.325,2.326,0.555,3.476,0.555c5.38,0,7.996-3.012,7.996-9.207
		V4.491h6.829V1.475H12.034v3.016h7.072V19.16c0,4.973-1.524,7.001-5.261,7.001c-1.208,0-2.173-0.242-2.758-0.439L10.652,28.096z"/>
</g>
<rect x="12.161" y="12.719" fill="none" stroke="#8CC377" stroke-width="0.5" stroke-miterlimit="10" width="6.915" height="2.875"/>
<path fill="#FFFFF4" d="M13.511,12.538c-0.039-0.143-0.201-0.189-0.355-0.168c-0.043-0.039-0.1-0.065-0.163-0.081
	c0.027-0.076-0.095-0.173-0.229-0.126c-0.354,0.121-0.522,0.278-0.463,0.566c0.035,0.165,0.229,0.313,0.349,0.449
	c0.216,0.246,0.091,0.438-0.134,0.643c-0.269,0.247-0.259,0.577-0.049,0.839c0.143,0.182,0.352,0.317,0.363,0.537
	c0.009,0.19-0.274,0.357-0.417,0.5c-0.116,0.113,0.149,0.222,0.264,0.109c0.002-0.002,0.004-0.005,0.006-0.006
	c0.066,0.101,0.23,0.168,0.4,0.14c0.822-0.135,0.738-0.678,0.828-1.188C14.038,14.021,13.7,13.254,13.511,12.538z"/>
<rect x="17.529" y="12.961" fill="#FFFFF4" width="3.248" height="2.391"/>
<rect x="19.153" y="12.246" fill="#FFFFF4" stroke="#FFFFF4" stroke-width="0.12" stroke-miterlimit="10" width="1.909" height="4.041"/>
<rect x="11.795" y="12.117" fill="#8CC377" width="1.909" height="0.505"/>
<rect x="11.391" y="15.693" fill="#8CC377" width="2.453" height="0.505"/>
<rect x="12.989" y="12.622" fill="#FFFFF4" width="6.086" height="3.072"/>
</svg>
